<mxfile host="www.draw.io" modified="2020-02-18T10:53:31.800Z" agent="Mozilla/5.0 (Windows NT 10.0; Win64; x64) AppleWebKit/537.36 (KHTML, like Gecko) Chrome/80.0.3987.87 Safari/537.36" etag="s7HH0aLFpEXOZtBWpvZq" version="12.7.1" type="github">
  <diagram id="9WqTz0FLbvIk-7F3oKGg" name="Page-1">
    <mxGraphModel dx="1052" dy="554" grid="0" gridSize="10" guides="1" tooltips="1" connect="1" arrows="1" fold="1" page="1" pageScale="1" pageWidth="827" pageHeight="1169" math="0" shadow="0">
      <root>
        <mxCell id="0" />
        <mxCell id="1" parent="0" />
        <mxCell id="gSTD2M2dS15GA0vHVEwa-15" style="edgeStyle=orthogonalEdgeStyle;rounded=0;orthogonalLoop=1;jettySize=auto;html=1;exitX=0;exitY=0.5;exitDx=0;exitDy=0;entryX=0.5;entryY=0;entryDx=0;entryDy=0;" parent="1" source="gSTD2M2dS15GA0vHVEwa-2" target="gSTD2M2dS15GA0vHVEwa-3" edge="1">
          <mxGeometry relative="1" as="geometry" />
        </mxCell>
        <mxCell id="gSTD2M2dS15GA0vHVEwa-16" style="edgeStyle=orthogonalEdgeStyle;rounded=0;orthogonalLoop=1;jettySize=auto;html=1;exitX=0.5;exitY=1;exitDx=0;exitDy=0;" parent="1" source="gSTD2M2dS15GA0vHVEwa-2" target="gSTD2M2dS15GA0vHVEwa-4" edge="1">
          <mxGeometry relative="1" as="geometry" />
        </mxCell>
        <mxCell id="gSTD2M2dS15GA0vHVEwa-17" style="edgeStyle=orthogonalEdgeStyle;rounded=0;orthogonalLoop=1;jettySize=auto;html=1;exitX=1;exitY=0.5;exitDx=0;exitDy=0;entryX=0.5;entryY=0;entryDx=0;entryDy=0;" parent="1" source="gSTD2M2dS15GA0vHVEwa-2" target="gSTD2M2dS15GA0vHVEwa-5" edge="1">
          <mxGeometry relative="1" as="geometry" />
        </mxCell>
        <mxCell id="gSTD2M2dS15GA0vHVEwa-2" value="Raw alert" style="rounded=0;whiteSpace=wrap;html=1;fillColor=#dae8fc;strokeColor=#6c8ebf;" parent="1" vertex="1">
          <mxGeometry x="392" y="264" width="81" height="53" as="geometry" />
        </mxCell>
        <mxCell id="gSTD2M2dS15GA0vHVEwa-18" style="edgeStyle=orthogonalEdgeStyle;rounded=0;orthogonalLoop=1;jettySize=auto;html=1;exitX=0.5;exitY=1;exitDx=0;exitDy=0;" parent="1" source="gSTD2M2dS15GA0vHVEwa-3" edge="1">
          <mxGeometry relative="1" as="geometry">
            <mxPoint x="276" y="458.4158630371094" as="targetPoint" />
          </mxGeometry>
        </mxCell>
        <mxCell id="gSTD2M2dS15GA0vHVEwa-3" value="Reduce completeness for missing fields" style="rounded=1;whiteSpace=wrap;html=1;" parent="1" vertex="1">
          <mxGeometry x="216" y="353" width="120" height="60" as="geometry" />
        </mxCell>
        <mxCell id="gSTD2M2dS15GA0vHVEwa-34" style="edgeStyle=orthogonalEdgeStyle;rounded=0;orthogonalLoop=1;jettySize=auto;html=1;exitX=0.5;exitY=1;exitDx=0;exitDy=0;" parent="1" source="gSTD2M2dS15GA0vHVEwa-4" target="gSTD2M2dS15GA0vHVEwa-7" edge="1">
          <mxGeometry relative="1" as="geometry" />
        </mxCell>
        <mxCell id="gSTD2M2dS15GA0vHVEwa-4" value="Get hours since detect time" style="rounded=1;whiteSpace=wrap;html=1;" parent="1" vertex="1">
          <mxGeometry x="372.5" y="353" width="120" height="60" as="geometry" />
        </mxCell>
        <mxCell id="gSTD2M2dS15GA0vHVEwa-20" style="edgeStyle=orthogonalEdgeStyle;rounded=0;orthogonalLoop=1;jettySize=auto;html=1;exitX=0.5;exitY=1;exitDx=0;exitDy=0;entryX=0.5;entryY=0;entryDx=0;entryDy=0;" parent="1" source="gSTD2M2dS15GA0vHVEwa-5" target="gSTD2M2dS15GA0vHVEwa-8" edge="1">
          <mxGeometry relative="1" as="geometry" />
        </mxCell>
        <mxCell id="gSTD2M2dS15GA0vHVEwa-5" value="Counting node type specific keywords in alert" style="rounded=1;whiteSpace=wrap;html=1;" parent="1" vertex="1">
          <mxGeometry x="535" y="353" width="120" height="60" as="geometry" />
        </mxCell>
        <mxCell id="gSTD2M2dS15GA0vHVEwa-9" style="edgeStyle=orthogonalEdgeStyle;rounded=0;orthogonalLoop=1;jettySize=auto;html=1;exitX=0.5;exitY=1;exitDx=0;exitDy=0;entryX=0.5;entryY=0;entryDx=0;entryDy=0;" parent="1" source="gSTD2M2dS15GA0vHVEwa-6" target="gSTD2M2dS15GA0vHVEwa-10" edge="1">
          <mxGeometry relative="1" as="geometry">
            <mxPoint x="276" y="615.7268371582031" as="targetPoint" />
          </mxGeometry>
        </mxCell>
        <mxCell id="gSTD2M2dS15GA0vHVEwa-6" value="Boost if important fields present" style="rounded=1;whiteSpace=wrap;html=1;" parent="1" vertex="1">
          <mxGeometry x="216" y="459" width="120" height="60" as="geometry" />
        </mxCell>
        <mxCell id="gSTD2M2dS15GA0vHVEwa-13" style="edgeStyle=orthogonalEdgeStyle;rounded=0;orthogonalLoop=1;jettySize=auto;html=1;exitX=0.5;exitY=1;exitDx=0;exitDy=0;" parent="1" source="gSTD2M2dS15GA0vHVEwa-7" target="gSTD2M2dS15GA0vHVEwa-11" edge="1">
          <mxGeometry relative="1" as="geometry" />
        </mxCell>
        <mxCell id="gSTD2M2dS15GA0vHVEwa-7" value="Decay function" style="rounded=1;whiteSpace=wrap;html=1;" parent="1" vertex="1">
          <mxGeometry x="372.5" y="459" width="120" height="60" as="geometry" />
        </mxCell>
        <mxCell id="gSTD2M2dS15GA0vHVEwa-14" style="edgeStyle=orthogonalEdgeStyle;rounded=0;orthogonalLoop=1;jettySize=auto;html=1;exitX=0.5;exitY=1;exitDx=0;exitDy=0;entryX=0.5;entryY=0;entryDx=0;entryDy=0;" parent="1" source="gSTD2M2dS15GA0vHVEwa-8" target="gSTD2M2dS15GA0vHVEwa-12" edge="1">
          <mxGeometry relative="1" as="geometry" />
        </mxCell>
        <mxCell id="gSTD2M2dS15GA0vHVEwa-8" value="Weighting based on numbers of keywords" style="rounded=1;whiteSpace=wrap;html=1;" parent="1" vertex="1">
          <mxGeometry x="535" y="459" width="120" height="60" as="geometry" />
        </mxCell>
        <mxCell id="gSTD2M2dS15GA0vHVEwa-26" value="&amp;nbsp; 60%" style="edgeStyle=orthogonalEdgeStyle;rounded=0;orthogonalLoop=1;jettySize=auto;html=1;exitX=0.5;exitY=1;exitDx=0;exitDy=0;entryX=0;entryY=0.5;entryDx=0;entryDy=0;entryPerimeter=0;" parent="1" source="gSTD2M2dS15GA0vHVEwa-10" target="gSTD2M2dS15GA0vHVEwa-25" edge="1">
          <mxGeometry relative="1" as="geometry" />
        </mxCell>
        <mxCell id="gSTD2M2dS15GA0vHVEwa-10" value="Completeness" style="rounded=1;whiteSpace=wrap;html=1;" parent="1" vertex="1">
          <mxGeometry x="216" y="567" width="120" height="60" as="geometry" />
        </mxCell>
        <mxCell id="gSTD2M2dS15GA0vHVEwa-27" value="40%" style="edgeStyle=orthogonalEdgeStyle;rounded=0;orthogonalLoop=1;jettySize=auto;html=1;exitX=0.5;exitY=1;exitDx=0;exitDy=0;entryX=1;entryY=0.5;entryDx=0;entryDy=0;entryPerimeter=0;" parent="1" source="gSTD2M2dS15GA0vHVEwa-11" target="gSTD2M2dS15GA0vHVEwa-25" edge="1">
          <mxGeometry relative="1" as="geometry" />
        </mxCell>
        <mxCell id="gSTD2M2dS15GA0vHVEwa-11" value="Freshness" style="rounded=1;whiteSpace=wrap;html=1;" parent="1" vertex="1">
          <mxGeometry x="372.5" y="567" width="120" height="60" as="geometry" />
        </mxCell>
        <mxCell id="gSTD2M2dS15GA0vHVEwa-30" style="edgeStyle=orthogonalEdgeStyle;rounded=0;orthogonalLoop=1;jettySize=auto;html=1;exitX=0.5;exitY=1;exitDx=0;exitDy=0;entryX=1;entryY=0.5;entryDx=0;entryDy=0;" parent="1" source="gSTD2M2dS15GA0vHVEwa-12" target="gSTD2M2dS15GA0vHVEwa-29" edge="1">
          <mxGeometry relative="1" as="geometry" />
        </mxCell>
        <mxCell id="gSTD2M2dS15GA0vHVEwa-12" value="Relevance" style="rounded=1;whiteSpace=wrap;html=1;" parent="1" vertex="1">
          <mxGeometry x="535" y="567" width="120" height="60" as="geometry" />
        </mxCell>
        <mxCell id="gSTD2M2dS15GA0vHVEwa-31" style="edgeStyle=orthogonalEdgeStyle;rounded=0;orthogonalLoop=1;jettySize=auto;html=1;exitX=0.5;exitY=1;exitDx=0;exitDy=0;exitPerimeter=0;entryX=0;entryY=0.5;entryDx=0;entryDy=0;" parent="1" source="gSTD2M2dS15GA0vHVEwa-25" target="gSTD2M2dS15GA0vHVEwa-29" edge="1">
          <mxGeometry relative="1" as="geometry" />
        </mxCell>
        <mxCell id="gSTD2M2dS15GA0vHVEwa-25" value="" style="verticalLabelPosition=bottom;verticalAlign=top;html=1;shape=mxgraph.flowchart.summing_function;" parent="1" vertex="1">
          <mxGeometry x="340" y="653" width="30" height="30" as="geometry" />
        </mxCell>
        <mxCell id="gSTD2M2dS15GA0vHVEwa-32" style="edgeStyle=orthogonalEdgeStyle;rounded=0;orthogonalLoop=1;jettySize=auto;html=1;exitX=0.5;exitY=1;exitDx=0;exitDy=0;" parent="1" source="gSTD2M2dS15GA0vHVEwa-29" edge="1">
          <mxGeometry relative="1" as="geometry">
            <mxPoint x="512" y="753.6596069335938" as="targetPoint" />
          </mxGeometry>
        </mxCell>
        <mxCell id="gSTD2M2dS15GA0vHVEwa-29" value="" style="shape=image;html=1;verticalAlign=top;verticalLabelPosition=bottom;labelBackgroundColor=#ffffff;imageAspect=0;aspect=fixed;image=https://cdn2.iconfinder.com/data/icons/ios-tab-bar/25/Cross_Cricle-128.png" parent="1" vertex="1">
          <mxGeometry x="497" y="691" width="30" height="30" as="geometry" />
        </mxCell>
        <mxCell id="gSTD2M2dS15GA0vHVEwa-33" value="Score" style="text;html=1;align=center;verticalAlign=middle;resizable=0;points=[];autosize=1;" parent="1" vertex="1">
          <mxGeometry x="490.5" y="753" width="41" height="18" as="geometry" />
        </mxCell>
      </root>
    </mxGraphModel>
  </diagram>
</mxfile>
